<svg version="1.1" xmlns="http://www.w3.org/2000/svg" style="display: block;" viewBox="0 0 1988 2008" width="497" height="502" preserveAspectRatio="none">
<path transform="translate(0,0)" fill="rgb(35,157,213)" d="M 973.435 20.6301 C 1514.89 9.12375 1963.48 438.096 1976.18 979.527 C 1988.87 1520.96 1560.89 1970.49 1019.49 1984.37 C 476.398 1998.31 25.164 1568.7 12.4273 1025.58 C -0.309298 482.461 430.291 32.1723 973.435 20.6301 z"/>
<path transform="translate(0,0)" fill="rgb(255,255,255)" d="M 978.054 56.7887 C 1500.25 47.7851 1930.93 463.692 1940.15 985.883 C 1949.37 1508.07 1533.64 1938.92 1011.45 1948.36 C 488.96 1957.8 57.801 1541.78 48.5758 1019.28 C 39.3507 496.784 455.555 65.7976 978.054 56.7887 z"/>
<path transform="translate(0,0)" fill="rgb(158,207,119)" d="M 1102.03 945.951 C 1126.03 936.185 1150.02 926.732 1174.82 919.143 C 1213 907.46 1388.97 863.154 1418.88 876.267 C 1427.75 880.155 1434.2 886.727 1437.39 895.89 C 1442.37 910.159 1441.55 957.53 1440.51 974.319 C 1458.65 971.6 1485.05 964.496 1500.73 975.404 C 1508.31 980.678 1513.72 989.802 1515.1 998.906 C 1516.59 1019.22 1515.99 1042.32 1515.99 1062.71 L 1515.92 1199.32 L 1516 1409.68 L 1516.17 1476.72 C 1516.23 1491.29 1516.43 1505.49 1515.78 1520.06 C 1514.82 1541.98 1497.86 1554.49 1477.22 1556.38 C 1334.32 1569.46 1192.37 1592.71 1053.26 1628.05 C 1034.87 1632.72 1015.42 1640.08 996.58 1642.86 C 981.618 1643.59 943.528 1630.39 927.71 1626.57 C 908.932 1622.02 889.149 1617.18 870.362 1612.72 C 783.926 1592.92 696.534 1577.55 608.528 1566.67 C 588.262 1564.06 567.954 1561.78 547.613 1559.83 C 520.239 1557.28 471.525 1559.32 469.663 1520.45 C 468.401 1494.09 469.426 1466.6 469.348 1440.1 L 469.122 1263.85 L 468.98 1090.05 C 468.923 1060.79 468.445 1030.35 469.14 1001.17 C 469.514 985.472 486.323 969.634 501.793 969.76 C 515.993 969.264 530.449 972.87 544.484 975.131 C 545.015 959.984 544.223 944.685 544.336 929.516 C 544.479 910.226 542.422 888.366 562.558 877.898 C 566.329 875.906 570.471 874.714 574.724 874.396 C 588.974 873.335 620.115 878.257 634.754 880.388 C 688.759 888.253 745.135 898.918 797.425 915.103 C 815.783 920.887 833.98 927.169 851.996 933.942 C 861.729 937.641 876.288 944.07 885.497 946.727 L 886.385 946.973 C 899.468 954.051 915.844 961.027 929.932 968.438 C 946.922 977.374 960.066 986.283 975.888 995.257 C 977.604 998.202 988.258 1005.15 991.813 1007.62 C 998.54 1002.48 1005.21 997.265 1011.83 991.985 C 1014.67 991.359 1022 986.698 1024.85 984.956 C 1049.67 969.792 1075.69 958.225 1102.03 945.951 z"/>
<path transform="translate(0,0)" fill="rgb(35,157,213)" d="M 1440.51 974.319 C 1458.65 971.6 1485.05 964.496 1500.73 975.404 C 1508.31 980.678 1513.72 989.802 1515.1 998.906 C 1516.59 1019.22 1515.99 1042.32 1515.99 1062.71 L 1515.92 1199.32 L 1516 1409.68 L 1516.17 1476.72 C 1516.23 1491.29 1516.43 1505.49 1515.78 1520.06 C 1514.82 1541.98 1497.86 1554.49 1477.22 1556.38 C 1334.32 1569.46 1192.37 1592.71 1053.26 1628.05 C 1034.87 1632.72 1015.42 1640.08 996.58 1642.86 C 981.618 1643.59 943.528 1630.39 927.71 1626.57 C 908.932 1622.02 889.149 1617.18 870.362 1612.72 C 783.926 1592.92 696.534 1577.55 608.528 1566.67 C 588.262 1564.06 567.954 1561.78 547.613 1559.83 C 520.239 1557.28 471.525 1559.32 469.663 1520.45 C 468.401 1494.09 469.426 1466.6 469.348 1440.1 L 469.122 1263.85 L 468.98 1090.05 C 468.923 1060.79 468.445 1030.35 469.14 1001.17 C 469.514 985.472 486.323 969.634 501.793 969.76 C 515.993 969.264 530.449 972.87 544.484 975.131 C 544.819 981.396 546.33 1004.41 543.743 1008.88 L 542.169 1009.82 L 543.985 1010.46 C 545.371 1014.8 544.153 1068.08 544.158 1076.39 L 544.264 1319.02 C 544.305 1342.2 541.692 1425.68 547.495 1444.1 C 550.613 1453.99 558.98 1463.65 568.175 1468.37 C 583.031 1475.99 634.954 1482.85 655.068 1487.64 C 746.937 1509.48 832.37 1536.81 917.342 1578.37 C 926.722 1582.96 939.728 1586.2 947.328 1593.31 L 947.993 1595.46 C 957.013 1599.87 982.465 1611.94 991.344 1614.64 C 1006.05 1611.13 1020.19 1602.37 1034.86 1597.18 C 1039.99 1590.51 1066.46 1579.92 1075.23 1575.51 C 1125.81 1550.06 1179.67 1530.39 1233.78 1513.43 C 1271.43 1501.73 1309.54 1491.61 1348.03 1483.09 C 1360.09 1480.43 1372.05 1478.12 1384.15 1475.72 C 1399.1 1472.75 1415.92 1471.32 1427.17 1460.02 C 1433.57 1453.54 1437.73 1445.17 1439.03 1436.15 C 1440.57 1426.05 1439.99 1401.2 1439.99 1389.88 L 1439.9 1302.24 L 1440.19 1009.07 C 1439.5 1002.83 1439.69 980.612 1440.51 974.319 z"/>
<path transform="translate(0,0)" fill="rgb(255,255,255)" d="M 1440.19 1009.07 C 1453.72 1007.32 1467.82 1005.7 1481.27 1003.71 L 1481.46 1328.65 L 1481.17 1457.5 C 1481.17 1476 1480.31 1504.63 1481.4 1522.01 C 1330.59 1533.6 1181.14 1558.76 1034.86 1597.18 C 1039.99 1590.51 1066.46 1579.92 1075.23 1575.51 C 1125.81 1550.06 1179.67 1530.39 1233.78 1513.43 C 1271.43 1501.73 1309.54 1491.61 1348.03 1483.09 C 1360.09 1480.43 1372.05 1478.12 1384.15 1475.72 C 1399.1 1472.75 1415.92 1471.32 1427.17 1460.02 C 1433.57 1453.54 1437.73 1445.17 1439.03 1436.15 C 1440.57 1426.05 1439.99 1401.2 1439.99 1389.88 L 1439.9 1302.24 L 1440.19 1009.07 z"/>
<path transform="translate(0,0)" fill="rgb(255,255,255)" d="M 503.769 1002.25 C 516.774 1004.05 529.348 1007.01 542.169 1009.82 L 543.985 1010.46 C 545.371 1014.8 544.153 1068.08 544.158 1076.39 L 544.264 1319.02 C 544.305 1342.2 541.692 1425.68 547.495 1444.1 C 550.613 1453.99 558.98 1463.65 568.175 1468.37 C 583.031 1475.99 634.954 1482.85 655.068 1487.64 C 746.937 1509.48 832.37 1536.81 917.342 1578.37 C 926.722 1582.96 939.728 1586.2 947.328 1593.31 L 947.993 1595.46 C 916.049 1585.68 885.07 1580.63 852.666 1573.61 C 769.401 1555.17 685.274 1540.87 600.595 1530.75 C 568.407 1527.15 536.182 1523.89 503.925 1520.97 L 503.595 1150.15 C 503.68 1102.01 502.383 1049.91 503.769 1002.25 z"/>
<path transform="translate(0,0)" fill="rgb(255,255,255)" d="M 1397.61 909.413 C 1400.89 909.057 1401.14 908.889 1404.49 909.487 C 1406.99 913.128 1405.02 1005.46 1405 1018.07 L 1404.92 1272.39 C 1404.69 1327.27 1404.84 1382.15 1405.37 1437.03 C 1366.11 1444.33 1327.35 1451.27 1288.72 1461.69 C 1194.98 1486.97 1100.27 1518.93 1015.46 1566.82 C 1011.74 1568.87 1013.45 1568.8 1010.12 1568.44 C 1007.96 1564.46 1009.26 1515.61 1009.25 1506.95 L 1009.31 1322.43 L 1009.9 1037.14 C 1099 964.418 1284.48 919.509 1397.61 909.413 z"/>
<path transform="translate(0,0)" fill="rgb(35,157,213)" d="M 1321.15 1084.37 C 1325.71 1083.65 1329.91 1083.93 1334.52 1084.01 C 1340.21 1088.03 1344.78 1091.78 1345.62 1098.98 C 1347.57 1116.59 1327.12 1118.23 1314.38 1120.01 C 1242.21 1130.07 1169.48 1144.97 1097.24 1153.77 C 1061.48 1158.13 1066.51 1124.21 1082.97 1121.69 C 1162.27 1109.53 1241.73 1095.77 1321.15 1084.37 z"/>
<path transform="translate(0,0)" fill="rgb(35,157,213)" d="M 1324.67 1193.39 C 1341.33 1190.96 1351.02 1205.18 1342.52 1220.1 C 1339.3 1225.74 1322.49 1228.19 1315.77 1229.22 C 1296.5 1232.15 1277 1235.3 1257.61 1238.43 L 1094.98 1264.02 C 1084.22 1264.63 1072.27 1261.84 1070.76 1249 C 1070.24 1244.43 1071.57 1239.85 1074.45 1236.26 C 1080.99 1228.14 1110.82 1226.45 1121.85 1224.96 C 1138.36 1222.67 1154.85 1220.19 1171.3 1217.54 C 1220.65 1209.8 1275.69 1199.57 1324.67 1193.39 z"/>
<path transform="translate(0,0)" fill="rgb(35,157,213)" d="M 1181.86 1325.4 C 1185.42 1324.77 1192.07 1324.97 1195.92 1324.96 C 1207.24 1333.7 1212.46 1350.66 1195.32 1356.47 C 1185.35 1359.84 1169.68 1361.12 1158.77 1362.69 L 1095.23 1371.91 C 1079.59 1373.49 1075.32 1369.68 1070.37 1355.02 C 1072.74 1348.36 1075.23 1341.99 1082.57 1339.93 C 1093.1 1336.98 1104.61 1335.85 1115.46 1334.3 C 1137.55 1331.03 1159.69 1328.06 1181.86 1325.4 z"/>
<path transform="translate(0,0)" fill="rgb(255,255,255)" d="M 578.788 909.89 C 687.382 912.771 887.835 967.412 974.335 1035.76 C 975.668 1062.24 974.318 1099.28 974.264 1126.7 L 974.067 1305.61 L 973.914 1483.04 C 973.902 1508.74 975.295 1543.13 974.024 1567.67 C 969.788 1567.55 945.658 1552.35 939.613 1549.45 C 821.926 1492.9 707.825 1461.13 579.681 1438.6 C 578.031 1424.18 579.48 1392.18 579.484 1376.3 L 579.156 1258.9 L 578.788 909.89 z"/>
<path transform="translate(0,0)" fill="rgb(35,157,213)" d="M 761.815 1090.64 C 840.569 1081.87 911.516 1138.62 920.252 1217.38 C 928.988 1296.14 872.204 1367.06 793.442 1375.76 C 714.731 1384.45 643.867 1327.71 635.137 1249.01 C 626.406 1170.3 683.113 1099.41 761.815 1090.64 z"/>
<path transform="translate(0,0)" fill="rgb(255,255,255)" d="M 762.164 1123.78 C 822.418 1115.27 878.185 1157.15 886.801 1217.39 C 895.416 1277.63 853.626 1333.47 793.401 1342.19 C 733.029 1350.93 677.022 1309.02 668.386 1248.63 C 659.749 1188.24 701.761 1132.31 762.164 1123.78 z"/>
<path transform="translate(0,0)" fill="rgb(35,157,213)" d="M 773.978 1150.12 C 799.876 1150.86 792.103 1207.75 792.064 1227.69 C 808.991 1235.67 855.574 1258.01 820.706 1275.61 C 809.572 1276.83 777.991 1254.21 761.584 1247.79 C 760.34 1229.75 760.432 1175.22 762.569 1158.34 C 766.805 1153.8 768.182 1152.36 773.978 1150.12 z"/>
<path transform="translate(0,0)" fill="rgb(35,157,213)" d="M 886.763 787.907 L 766.111 787.531 C 747.617 787.485 726.58 788.294 708.221 786.174 C 700.058 784.556 687.241 771.858 687.072 763.572 C 685.971 709.839 686.692 659.022 686.713 604.968 C 686.729 561.061 751.253 578.468 778.137 575.075 C 782.651 574.505 795.072 575.204 799.939 575.569 C 821.157 597.225 842.465 617.627 861.805 641.088 C 927.968 721.349 969.26 822.371 974.762 926.502 C 975.967 949.313 977.399 972.419 975.888 995.257 C 960.066 986.283 946.922 977.374 929.932 968.438 C 915.844 961.027 899.468 954.051 886.385 946.973 C 885.05 896.066 886.766 839.539 886.763 787.907 z"/>
<path transform="translate(0,0)" fill="rgb(35,157,213)" d="M 1188.44 575.979 C 1216.75 574.698 1249.35 575.444 1277.7 576.769 C 1296.44 577.644 1301.1 598.952 1301.25 614.315 L 1301.21 713.297 C 1301.17 730.505 1301.77 748.346 1300.08 765.422 C 1299.29 773.372 1286.27 785.314 1278.68 786.118 C 1259.36 788.164 1239.09 787.427 1219.57 787.437 L 1100.93 787.272 L 1102.03 945.951 C 1075.69 958.225 1049.67 969.792 1024.85 984.956 C 1022 986.698 1014.67 991.359 1011.83 991.985 C 1011.62 806.808 1058.64 706.55 1188.44 575.979 z"/>
<path transform="translate(0,0)" fill="rgb(35,157,213)" d="M 972.332 372.509 L 1033.58 372.198 C 1051.17 372.123 1079.53 368.489 1092.35 381.879 C 1095.69 385.363 1099.66 391.259 1100.11 396.215 C 1101.87 415.235 1101.16 434.897 1101.17 454.046 L 1101.42 574.792 L 1129.56 574.709 C 1102.54 604.834 1055.02 634.245 1014.77 641.158 C 951.289 650.138 904.437 615.632 859.495 575.902 C 868.349 575.613 877.207 575.511 886.065 575.594 C 884.877 527.358 886.876 478.183 886.094 430.055 C 885.564 397.435 882.837 371.212 925.18 372.359 C 940.446 372.772 957.145 372.502 972.332 372.509 z"/>
<path transform="translate(0,0)" fill="rgb(255,255,255)" d="M 987.052 476.039 C 1018.4 472.018 1047.18 493.912 1051.66 525.2 C 1056.14 556.489 1034.67 585.58 1003.45 590.522 C 982.845 593.785 962.078 585.694 949.108 569.351 C 936.139 553.007 932.978 530.945 940.837 511.617 C 948.697 492.29 966.357 478.694 987.052 476.039 z"/>
</svg>